<svg width="1276" height="624" viewBox="0 0 1276 624" fill="none" xmlns="http://www.w3.org/2000/svg">
<path d="M185.569 317.724C188.987 317.724 191.836 318.944 194.114 321.386C196.556 323.664 197.776 326.513 197.776 329.931C197.776 333.349 196.556 336.278 194.114 338.72C191.836 340.998 188.987 342.138 185.569 342.138H100.853C73.9972 342.138 51.048 332.616 32.005 313.573C12.7993 294.53 3.19641 271.581 3.19641 244.726C3.19641 217.707 12.7993 194.595 32.005 175.39L92.0636 115.331C96.7837 110.611 99.1437 104.833 99.1437 97.9971C99.1437 91.1611 96.7837 85.3831 92.0636 80.6631C87.3435 75.943 81.5656 73.583 74.7296 73.583C68.0564 73.583 62.3598 75.943 57.6398 80.6631L24.1925 114.11C21.7511 116.552 18.8214 117.772 15.4034 117.772C12.1482 117.772 9.29993 116.552 6.85852 114.11C4.57987 111.669 3.44055 108.821 3.44055 105.565C3.44055 102.147 4.57987 99.2178 6.85852 96.7764L40.3058 63.3291C49.9087 53.889 61.3833 49.1689 74.7296 49.1689C88.2387 49.1689 99.7947 53.889 109.398 63.3291C119 72.932 123.802 84.488 123.802 97.9971C123.802 111.506 119 122.981 109.398 132.421L49.0948 192.724C34.9347 207.047 27.8546 224.381 27.8546 244.726C27.8546 264.908 34.9347 282.079 49.0948 296.239C63.4178 310.562 80.6704 317.724 100.853 317.724H185.569ZM100.853 293.31C87.5063 293.31 76.0317 288.59 66.4288 279.149C56.826 269.547 52.0245 257.991 52.0245 244.481C52.0245 230.972 56.826 219.498 66.4288 210.058L126.732 149.755C140.892 135.432 147.972 118.179 147.972 97.9971C147.972 77.652 140.892 60.3994 126.732 46.2393C112.409 31.9163 95.0747 24.7549 74.7296 24.7549C54.5473 24.7549 37.3761 31.9163 23.2159 46.2393L21.507 47.7041C19.0656 50.1455 16.1359 51.3662 12.7179 51.3662C9.46269 51.3662 6.61438 50.1455 4.17297 47.7041C1.73157 45.4255 0.510864 42.6585 0.510864 39.4033C0.510864 35.9854 1.73157 33.0557 4.17297 30.6143L5.88196 28.9053C24.9249 9.8623 47.8741 0.34082 74.7296 0.34082C101.748 0.34082 124.778 9.8623 143.821 28.9053C163.027 47.9482 172.63 70.9788 172.63 97.9971C172.63 124.853 163.027 147.883 143.821 167.089L83.7628 227.147C79.0428 231.868 76.6827 237.646 76.6827 244.481C76.6827 251.317 79.0428 257.095 83.7628 261.815C88.4829 266.535 94.1795 268.896 100.853 268.896H185.569C188.987 268.896 191.836 270.116 194.114 272.558C196.556 274.836 197.776 277.685 197.776 281.103C197.776 284.521 196.556 287.45 194.114 289.892C191.836 292.17 188.987 293.31 185.569 293.31H100.853Z" fill="#891236"/>
<path d="M415.55 329.931V12.5479C415.55 9.12988 416.689 6.28158 418.968 4.00293C421.409 1.56152 424.339 0.34082 427.757 0.34082C431.175 0.34082 434.023 1.56152 436.302 4.00293C438.743 6.28158 439.964 9.12988 439.964 12.5479V329.931C439.964 333.349 438.743 336.278 436.302 338.72C434.023 340.998 431.175 342.138 427.757 342.138C424.339 342.138 421.409 340.998 418.968 338.72C416.689 336.278 415.55 333.349 415.55 329.931ZM293.48 195.653V12.5479C293.48 9.12988 294.619 6.28158 296.898 4.00293C299.339 1.56152 302.269 0.34082 305.687 0.34082C309.105 0.34082 311.953 1.56152 314.232 4.00293C316.673 6.28158 317.894 9.12988 317.894 12.5479V183.446H366.722V12.5479C366.722 9.12988 367.861 6.28158 370.14 4.00293C372.581 1.56152 375.511 0.34082 378.929 0.34082C382.347 0.34082 385.195 1.56152 387.474 4.00293C389.915 6.28158 391.136 9.12988 391.136 12.5479V195.653C391.136 199.071 389.915 202.001 387.474 204.442C385.195 206.721 382.347 207.86 378.929 207.86H305.687C302.269 207.86 299.339 206.721 296.898 204.442C294.619 202.001 293.48 199.071 293.48 195.653ZM256.859 256.688C253.441 256.688 250.511 255.549 248.069 253.271C245.791 250.829 244.651 247.899 244.651 244.481V12.5479C244.651 9.12988 245.791 6.28158 248.069 4.00293C250.511 1.56152 253.441 0.34082 256.859 0.34082C260.276 0.34082 263.125 1.56152 265.403 4.00293C267.845 6.28158 269.066 9.12988 269.066 12.5479V232.274H378.929C382.347 232.274 385.195 233.495 387.474 235.937C389.915 238.215 391.136 241.063 391.136 244.481V329.931C391.136 333.349 389.915 336.278 387.474 338.72C385.195 340.998 382.347 342.138 378.929 342.138C375.511 342.138 372.581 340.998 370.14 338.72C367.861 336.278 366.722 333.349 366.722 329.931V256.688H256.859Z" fill="#891236"/>
<path d="M916.052 598.724C919.47 598.724 922.319 599.944 924.597 602.386C927.039 604.664 928.259 607.513 928.259 610.931C928.259 614.349 927.039 617.278 924.597 619.72C922.319 621.998 919.47 623.138 916.052 623.138H831.335C804.48 623.138 781.531 613.616 762.488 594.573C743.282 575.53 733.679 552.581 733.679 525.726C733.679 498.707 743.282 475.595 762.488 456.39L822.546 396.331C827.266 391.611 829.626 385.833 829.626 378.997C829.626 372.161 827.266 366.383 822.546 361.663C817.826 356.943 812.048 354.583 805.212 354.583C798.539 354.583 792.843 356.943 788.123 361.663L754.675 395.11C752.234 397.552 749.304 398.772 745.886 398.772C742.631 398.772 739.783 397.552 737.341 395.11C735.063 392.669 733.923 389.821 733.923 386.565C733.923 383.147 735.063 380.218 737.341 377.776L770.789 344.329C780.391 334.889 791.866 330.169 805.212 330.169C818.722 330.169 830.278 334.889 839.88 344.329C849.483 353.932 854.285 365.488 854.285 378.997C854.285 392.506 849.483 403.981 839.88 413.421L779.578 473.724C765.417 488.047 758.337 505.381 758.337 525.726C758.337 545.908 765.417 563.079 779.578 577.239C793.901 591.562 811.153 598.724 831.335 598.724H916.052ZM831.335 574.31C817.989 574.31 806.514 569.59 796.912 560.149C787.309 550.547 782.507 538.991 782.507 525.481C782.507 511.972 787.309 500.498 796.912 491.058L857.214 430.755C871.375 416.432 878.455 399.179 878.455 378.997C878.455 358.652 871.375 341.399 857.214 327.239C842.891 312.916 825.557 305.755 805.212 305.755C785.03 305.755 767.859 312.916 753.699 327.239L751.99 328.704C749.548 331.146 746.619 332.366 743.201 332.366C739.945 332.366 737.097 331.146 734.656 328.704C732.214 326.425 730.994 323.659 730.994 320.403C730.994 316.985 732.214 314.056 734.656 311.614L736.365 309.905C755.408 290.862 778.357 281.341 805.212 281.341C832.231 281.341 855.261 290.862 874.304 309.905C893.51 328.948 903.113 351.979 903.113 378.997C903.113 405.853 893.51 428.883 874.304 448.089L814.246 508.147C809.526 512.868 807.166 518.646 807.166 525.481C807.166 532.317 809.526 538.095 814.246 542.815C818.966 547.535 824.662 549.896 831.335 549.896H916.052C919.47 549.896 922.319 551.116 924.597 553.558C927.039 555.836 928.259 558.685 928.259 562.103C928.259 565.521 927.039 568.45 924.597 570.892C922.319 573.17 919.47 574.31 916.052 574.31H831.335Z" fill="#891236"/>
<path d="M1160.19 305.755H1075.48C1055.29 305.755 1038.04 312.916 1023.72 327.239C1009.56 341.399 1002.48 358.652 1002.48 378.997C1002.48 399.179 1009.56 416.432 1023.72 430.755L1084.02 491.058C1093.62 500.498 1098.43 511.972 1098.43 525.481C1098.43 538.991 1093.62 550.547 1084.02 560.149C1074.42 569.59 1062.86 574.31 1049.35 574.31C1036.01 574.31 1024.53 569.59 1014.93 560.149L981.482 526.702C979.203 524.261 978.064 521.412 978.064 518.157C978.064 514.739 979.203 511.81 981.482 509.368C983.923 506.927 986.772 505.706 990.027 505.706C993.445 505.706 996.375 506.927 998.816 509.368L1032.26 542.815C1036.98 547.535 1042.68 549.896 1049.35 549.896C1056.19 549.896 1061.97 547.535 1066.69 542.815C1071.41 538.095 1073.77 532.317 1073.77 525.481C1073.77 518.646 1071.41 512.868 1066.69 508.147L1006.63 448.089C987.423 428.883 977.82 405.853 977.82 378.997C977.82 351.979 987.423 328.948 1006.63 309.905C1025.67 290.862 1048.62 281.341 1075.48 281.341H1160.19C1163.61 281.341 1166.46 282.562 1168.74 285.003C1171.18 287.282 1172.4 290.13 1172.4 293.548C1172.4 296.966 1171.18 299.896 1168.74 302.337C1166.46 304.616 1163.61 305.755 1160.19 305.755ZM1075.48 330.169H1160.19C1163.61 330.169 1166.46 331.39 1168.74 333.831C1171.18 336.11 1172.4 338.958 1172.4 342.376C1172.4 345.794 1171.18 348.724 1168.74 351.165C1166.46 353.444 1163.61 354.583 1160.19 354.583H1075.48C1068.8 354.583 1063.11 356.943 1058.39 361.663C1053.67 366.383 1051.31 372.161 1051.31 378.997C1051.31 385.833 1053.67 391.611 1058.39 396.331L1118.44 456.39C1137.65 475.595 1147.25 498.707 1147.25 525.726C1147.25 552.581 1137.65 575.53 1118.44 594.573C1099.4 613.616 1076.37 623.138 1049.35 623.138C1022.5 623.138 999.548 613.616 980.505 594.573L978.796 592.864C976.355 590.423 975.134 587.575 975.134 584.319C975.134 580.901 976.355 578.053 978.796 575.774C981.238 573.333 984.086 572.112 987.341 572.112C990.759 572.112 993.689 573.333 996.13 575.774L997.839 577.239C1012 591.562 1029.17 598.724 1049.35 598.724C1069.7 598.724 1087.03 591.562 1101.35 577.239C1115.52 563.079 1122.6 545.908 1122.6 525.726C1122.6 505.381 1115.52 488.047 1101.35 473.724L1041.05 413.421C1031.45 403.981 1026.65 392.506 1026.65 378.997C1026.65 365.488 1031.45 353.932 1041.05 344.329C1050.66 334.889 1062.13 330.169 1075.48 330.169Z" fill="#891236"/>
<path d="M540.371 51.2354V97.7197C540.371 98.6768 540.029 99.4971 539.345 100.181C538.707 100.819 537.91 101.138 536.953 101.138C535.996 101.138 535.175 100.819 534.492 100.181C533.854 99.4971 533.535 98.6768 533.535 97.7197V43.0322C533.535 42.0752 533.854 41.2777 534.492 40.6396C535.175 39.9561 535.996 39.6143 536.953 39.6143C537.91 39.6143 538.73 39.9333 539.414 40.5713L588.222 89.4482V8.85254C588.222 7.89551 588.541 7.09798 589.179 6.45996C589.863 5.77637 590.683 5.43457 591.64 5.43457C592.597 5.43457 593.395 5.77637 594.033 6.45996C594.716 7.09798 595.058 7.89551 595.058 8.85254V97.7197C595.058 98.6768 594.739 99.4743 594.101 100.112C593.417 100.796 592.62 101.138 591.708 101.138C590.706 101.138 589.886 100.819 589.248 100.181L540.371 51.2354ZM526.699 17.0557V97.7197C526.699 98.6768 526.357 99.4971 525.673 100.181C525.035 100.819 524.238 101.138 523.281 101.138C522.324 101.138 521.503 100.819 520.82 100.181C520.182 99.4971 519.863 98.6768 519.863 97.7197V8.85254C519.863 7.89551 520.182 7.09798 520.82 6.45996C521.503 5.77637 522.324 5.43457 523.281 5.43457C524.238 5.43457 525.058 5.75358 525.742 6.3916L574.55 55.2686V8.85254C574.55 7.89551 574.869 7.09798 575.507 6.45996C576.191 5.77637 577.011 5.43457 577.968 5.43457C578.925 5.43457 579.723 5.77637 580.361 6.45996C581.044 7.09798 581.386 7.89551 581.386 8.85254V63.54C581.386 64.4971 581.044 65.3174 580.361 66.001C579.723 66.639 578.925 66.958 577.968 66.958C577.011 66.958 576.214 66.639 575.576 66.001L526.699 17.0557Z" fill="#891236"/>
<path d="M656.582 101.138C643.365 101.138 632.086 96.4665 622.744 87.124C613.401 77.7816 608.73 66.5023 608.73 53.2861C608.73 40.07 613.401 28.7907 622.744 19.4482C632.086 10.1058 643.365 5.43457 656.582 5.43457C669.798 5.43457 681.077 10.1058 690.419 19.4482C699.762 28.7907 704.433 40.07 704.433 53.2861C704.433 66.5023 699.762 77.7816 690.419 87.124C681.077 96.4665 669.798 101.138 656.582 101.138ZM656.582 94.3018C667.929 94.3018 677.591 90.3141 685.566 82.3389C693.587 74.318 697.597 64.6338 697.597 53.2861C697.597 41.9385 693.587 32.277 685.566 24.3018C677.591 16.2809 667.929 12.2705 656.582 12.2705C645.234 12.2705 635.55 16.2809 627.529 24.3018C619.554 32.277 615.566 41.9385 615.566 53.2861C615.566 64.6338 619.554 74.318 627.529 82.3389C635.55 90.3141 645.234 94.3018 656.582 94.3018ZM656.582 87.4658C647.148 87.4658 639.082 84.139 632.382 77.4854C625.729 70.7861 622.402 62.7197 622.402 53.2861C622.402 43.8525 625.729 35.8089 632.382 29.1553C639.082 22.4561 647.148 19.1064 656.582 19.1064C666.015 19.1064 674.059 22.4561 680.712 29.1553C687.412 35.8089 690.761 43.8525 690.761 53.2861C690.761 62.7197 687.412 70.7861 680.712 77.4854C674.059 84.139 666.015 87.4658 656.582 87.4658ZM656.582 80.6299C664.147 80.6299 670.595 77.9639 675.927 72.6318C681.259 67.2998 683.925 60.8512 683.925 53.2861C683.925 45.721 681.259 39.2725 675.927 33.9404C670.595 28.6084 664.147 25.9424 656.582 25.9424C649.016 25.9424 642.568 28.6084 637.236 33.9404C631.904 39.2725 629.238 45.721 629.238 53.2861C629.238 60.8512 631.904 67.2998 637.236 72.6318C642.568 77.9639 649.016 80.6299 656.582 80.6299Z" fill="#891236"/>
<path d="M715.986 11.2451C715.302 10.6071 714.96 9.80957 714.96 8.85254C714.96 7.89551 715.279 7.09798 715.917 6.45996C716.601 5.77637 717.421 5.43457 718.378 5.43457C719.335 5.43457 720.156 5.75358 720.839 6.3916L769.648 55.2686V8.85254C769.648 7.89551 769.967 7.09798 770.605 6.45996C771.289 5.77637 772.109 5.43457 773.066 5.43457C774.023 5.43457 774.82 5.77637 775.458 6.45996C776.142 7.09798 776.484 7.89551 776.484 8.85254V63.54C776.484 64.4971 776.142 65.3174 775.458 66.001C774.82 66.639 774.023 66.958 773.066 66.958C772.109 66.958 771.311 66.639 770.673 66.001L715.986 11.2451ZM783.32 89.4482V8.85254C783.32 7.89551 783.639 7.09798 784.277 6.45996C784.96 5.77637 785.781 5.43457 786.738 5.43457C787.695 5.43457 788.492 5.77637 789.13 6.45996C789.814 7.09798 790.156 7.89551 790.156 8.85254V97.7197C790.156 98.6768 789.837 99.4743 789.199 100.112C788.515 100.796 787.695 101.138 786.738 101.138C785.781 101.138 784.983 100.819 784.345 100.181L695.478 11.2451C694.794 10.6071 694.453 9.80957 694.453 8.85254C694.453 7.89551 694.772 7.09798 695.41 6.45996C696.093 5.77637 696.914 5.43457 697.871 5.43457C698.828 5.43457 699.648 5.75358 700.332 6.3916L783.32 89.4482Z" fill="#891236"/>
<path d="M810.664 94.3018H861.933C862.89 94.3018 863.688 94.6436 864.326 95.3271C865.009 95.9652 865.351 96.7627 865.351 97.7197C865.351 98.6768 865.009 99.4971 864.326 100.181C863.688 100.819 862.89 101.138 861.933 101.138H807.246C806.289 101.138 805.468 100.819 804.785 100.181C804.147 99.4971 803.828 98.6768 803.828 97.7197V8.85254C803.828 7.89551 804.147 7.09798 804.785 6.45996C805.468 5.77637 806.289 5.43457 807.246 5.43457H861.933C862.89 5.43457 863.688 5.77637 864.326 6.45996C865.009 7.09798 865.351 7.89551 865.351 8.85254C865.351 9.80957 865.009 10.6299 864.326 11.3135C863.688 11.9515 862.89 12.2705 861.933 12.2705H810.664V94.3018ZM820.917 56.7041H861.933C862.89 56.7041 863.688 57.0459 864.326 57.7295C865.009 58.3675 865.351 59.165 865.351 60.1221C865.351 61.0791 865.009 61.8994 864.326 62.583C863.688 63.221 862.89 63.54 861.933 63.54H824.335V80.6299H861.933C862.89 80.6299 863.688 80.9717 864.326 81.6553C865.009 82.2933 865.351 83.0908 865.351 84.0479C865.351 85.0049 865.009 85.8252 864.326 86.5088C863.688 87.1468 862.89 87.4658 861.933 87.4658H820.917C819.96 87.4658 819.14 87.1468 818.457 86.5088C817.819 85.8252 817.5 85.0049 817.5 84.0479V60.1221C817.5 59.165 817.819 58.3675 818.457 57.7295C819.14 57.0459 819.96 56.7041 820.917 56.7041ZM820.917 19.1064H861.933C862.89 19.1064 863.688 19.4482 864.326 20.1318C865.009 20.7699 865.351 21.5674 865.351 22.5244C865.351 23.4814 865.009 24.3018 864.326 24.9854C863.688 25.6234 862.89 25.9424 861.933 25.9424H824.335V43.0322H861.933C862.89 43.0322 863.688 43.374 864.326 44.0576C865.009 44.6956 865.351 45.4932 865.351 46.4502C865.351 47.4072 865.009 48.2275 864.326 48.9111C863.688 49.5492 862.89 49.8682 861.933 49.8682H820.917C819.96 49.8682 819.14 49.5492 818.457 48.9111C817.819 48.2275 817.5 47.4072 817.5 46.4502V22.5244C817.5 21.5674 817.819 20.7699 818.457 20.1318C819.14 19.4482 819.96 19.1064 820.917 19.1064Z" fill="#891236"/>
<path d="M961.054 17.124L878.066 100.112C877.382 100.796 876.562 101.138 875.605 101.138C874.648 101.138 873.828 100.819 873.144 100.181C872.506 99.4971 872.187 98.6768 872.187 97.7197C872.187 96.7627 872.529 95.9424 873.212 95.2588L962.08 6.3916C962.718 5.75358 963.515 5.43457 964.472 5.43457C965.429 5.43457 966.227 5.77637 966.865 6.45996C967.548 7.09798 967.89 7.89551 967.89 8.85254V55.2686C1001.11 22.0459 1018.2 5.43457 1019.16 5.43457C1020.12 5.43457 1020.91 5.77637 1021.55 6.45996C1022.24 7.09798 1022.58 7.89551 1022.58 8.85254V97.7197C1022.58 98.6768 1022.24 99.4971 1021.55 100.181C1020.91 100.819 1020.12 101.138 1019.16 101.138C1018.2 101.138 1017.38 100.819 1016.7 100.181C1016.06 99.4971 1015.74 98.6768 1015.74 97.7197V17.124L966.933 65.9326C966.25 66.6162 965.429 66.958 964.472 66.958C963.515 66.958 962.695 66.639 962.011 66.001C961.373 65.3174 961.054 64.4971 961.054 63.54V17.124ZM947.382 51.3037L898.574 100.112C897.89 100.796 897.07 101.138 896.113 101.138C895.156 101.138 894.335 100.819 893.652 100.181C893.014 99.4971 892.695 98.6768 892.695 97.7197C892.695 96.7627 893.037 95.9424 893.72 95.2588L948.408 40.5713C949.046 39.9333 949.843 39.6143 950.8 39.6143C951.757 39.6143 952.578 39.9333 953.261 40.5713C953.899 41.2549 954.218 42.0752 954.218 43.0322V89.4482L1003.1 40.5713C1003.73 39.9333 1004.53 39.6143 1005.49 39.6143C1006.44 39.6143 1007.27 39.9333 1007.95 40.5713C1008.59 41.2549 1008.91 42.0752 1008.91 43.0322V97.7197C1008.91 98.6768 1008.56 99.4971 1007.88 100.181C1007.24 100.819 1006.44 101.138 1005.49 101.138C1004.53 101.138 1003.71 100.819 1003.03 100.181C1002.39 99.4971 1002.07 98.6768 1002.07 97.7197V51.3037L953.261 100.112C952.578 100.796 951.757 101.138 950.8 101.138C949.843 101.138 949.023 100.819 948.339 100.181C947.701 99.4971 947.382 98.6768 947.382 97.7197V51.3037Z" fill="#891236"/>
<path d="M1080.68 80.6299C1083.51 80.6299 1085.92 79.6273 1087.93 77.6221C1089.93 75.6169 1090.94 73.2015 1090.94 70.376C1090.94 67.5505 1089.93 65.1351 1087.93 63.1299C1085.92 61.1247 1083.51 60.1221 1080.68 60.1221H1056.76V80.6299H1080.68ZM1080.68 53.2861C1085.42 53.2861 1089.46 54.9495 1092.78 58.2764C1096.11 61.6032 1097.77 65.6364 1097.77 70.376C1097.77 75.1156 1096.11 79.1488 1092.78 82.4756C1089.46 85.8024 1085.42 87.4658 1080.68 87.4658H1053.34C1052.38 87.4658 1051.56 87.1468 1050.88 86.5088C1050.24 85.8252 1049.92 85.0049 1049.92 84.0479V56.7041C1049.92 55.7471 1050.24 54.9495 1050.88 54.3115C1051.56 53.6279 1052.38 53.2861 1053.34 53.2861H1080.68ZM1056.76 25.9424V39.6143H1080.68C1082.55 39.6143 1084.15 38.9535 1085.47 37.6318C1086.84 36.2646 1087.52 34.6468 1087.52 32.7783C1087.52 30.9098 1086.84 29.3148 1085.47 27.9932C1084.15 26.626 1082.55 25.9424 1080.68 25.9424H1056.76ZM1053.34 46.4502C1052.38 46.4502 1051.56 46.1312 1050.88 45.4932C1050.24 44.8096 1049.92 43.9893 1049.92 43.0322V22.5244C1049.92 21.5674 1050.24 20.7699 1050.88 20.1318C1051.56 19.4482 1052.38 19.1064 1053.34 19.1064H1080.68C1084.47 19.1064 1087.68 20.4508 1090.32 23.1396C1093.01 25.7829 1094.35 28.9958 1094.35 32.7783C1094.35 36.5609 1093.01 39.7965 1090.32 42.4854C1087.68 45.1286 1084.47 46.4502 1080.68 46.4502H1053.34ZM1080.68 94.3018C1087.29 94.3018 1092.92 91.9775 1097.57 87.3291C1102.26 82.6351 1104.61 76.984 1104.61 70.376C1104.61 63.9958 1102.42 58.5042 1098.05 53.9014C1095.18 50.9847 1094.99 47.863 1097.5 44.5361C1099.96 41.1182 1101.19 37.1989 1101.19 32.7783C1101.19 27.1273 1099.19 22.2965 1095.18 18.2861C1091.16 14.2757 1086.33 12.2705 1080.68 12.2705H1043.09V94.3018H1080.68ZM1080.68 5.43457C1088.25 5.43457 1094.7 8.10059 1100.03 13.4326C1105.36 18.7646 1108.03 25.2132 1108.03 32.7783C1108.03 38.9307 1106.27 44.3311 1102.76 48.9795C1108.55 54.9495 1111.44 62.0817 1111.44 70.376C1111.44 78.8525 1108.44 86.0986 1102.42 92.1143C1096.41 98.1299 1089.16 101.138 1080.68 101.138H1039.67C1038.71 101.138 1037.89 100.819 1037.21 100.181C1036.57 99.4971 1036.25 98.6768 1036.25 97.7197V8.85254C1036.25 7.89551 1036.57 7.09798 1037.21 6.45996C1037.89 5.77637 1038.71 5.43457 1039.67 5.43457H1080.68Z" fill="#891236"/>
<path d="M1145.62 25.9424V53.2861H1166.13C1169.91 53.2861 1173.13 51.9645 1175.77 49.3213C1178.46 46.6325 1179.8 43.3968 1179.8 39.6143C1179.8 35.8317 1178.46 32.6188 1175.77 29.9756C1173.13 27.2868 1169.91 25.9424 1166.13 25.9424H1145.62ZM1138.79 22.5244C1138.79 21.5674 1139.11 20.7699 1139.75 20.1318C1140.43 19.4482 1141.25 19.1064 1142.21 19.1064H1166.13C1171.78 19.1064 1176.61 21.1117 1180.62 25.1221C1184.63 29.1325 1186.64 33.9632 1186.64 39.6143C1186.64 45.2653 1184.63 50.096 1180.62 54.1064C1176.61 58.1169 1171.78 60.1221 1166.13 60.1221H1142.21C1141.25 60.1221 1140.43 59.8031 1139.75 59.165C1139.11 58.4814 1138.79 57.6611 1138.79 56.7041V22.5244ZM1170.78 73.5205L1192.52 95.3271C1193.16 95.9652 1193.48 96.7627 1193.48 97.7197C1193.48 98.6768 1193.13 99.4971 1192.45 100.181C1191.81 100.819 1191.02 101.138 1190.06 101.138C1189.1 101.138 1188.3 100.819 1187.67 100.181L1160.32 72.7686C1159.64 72.1305 1159.3 71.333 1159.3 70.376C1159.3 69.4189 1159.62 68.6214 1160.25 67.9834C1160.94 67.2998 1161.76 66.958 1162.71 66.958H1166.13C1173.7 66.958 1180.15 64.292 1185.48 58.96C1190.81 53.6279 1193.48 47.1794 1193.48 39.6143C1193.48 32.0492 1190.81 25.6006 1185.48 20.2686C1180.15 14.9365 1173.7 12.2705 1166.13 12.2705H1131.95V97.7197C1131.95 98.6768 1131.61 99.4971 1130.93 100.181C1130.29 100.819 1129.49 101.138 1128.53 101.138C1127.58 101.138 1126.76 100.819 1126.07 100.181C1125.44 99.4971 1125.12 98.6768 1125.12 97.7197V8.85254C1125.12 7.89551 1125.44 7.09798 1126.07 6.45996C1126.76 5.77637 1127.58 5.43457 1128.53 5.43457H1166.13C1175.57 5.43457 1183.61 8.78418 1190.26 15.4834C1196.96 22.137 1200.31 30.1807 1200.31 39.6143C1200.31 49.0479 1196.99 57.0915 1190.33 63.7451C1184.77 69.305 1178.25 72.5635 1170.78 73.5205ZM1145.62 78.5791V97.7197C1145.62 98.6768 1145.28 99.4971 1144.6 100.181C1143.96 100.819 1143.16 101.138 1142.21 101.138C1141.25 101.138 1140.43 100.819 1139.75 100.181C1139.11 99.4971 1138.79 98.6768 1138.79 97.7197V70.376C1138.79 69.4189 1139.11 68.6214 1139.75 67.9834C1140.43 67.2998 1141.25 66.958 1142.21 66.958C1143.16 66.958 1143.98 67.277 1144.67 67.915L1172.01 95.3271C1172.65 95.9652 1172.97 96.7627 1172.97 97.7197C1172.97 98.6768 1172.63 99.4971 1171.94 100.181C1171.3 100.819 1170.51 101.138 1169.55 101.138C1168.59 101.138 1167.8 100.819 1167.16 100.181L1145.62 78.5791Z" fill="#891236"/>
<path d="M1220.82 94.3018H1272.09C1273.05 94.3018 1273.84 94.6436 1274.48 95.3271C1275.17 95.9652 1275.51 96.7627 1275.51 97.7197C1275.51 98.6768 1275.17 99.4971 1274.48 100.181C1273.84 100.819 1273.05 101.138 1272.09 101.138H1217.4C1216.44 101.138 1215.62 100.819 1214.94 100.181C1214.3 99.4971 1213.98 98.6768 1213.98 97.7197V8.85254C1213.98 7.89551 1214.3 7.09798 1214.94 6.45996C1215.62 5.77637 1216.44 5.43457 1217.4 5.43457H1272.09C1273.05 5.43457 1273.84 5.77637 1274.48 6.45996C1275.17 7.09798 1275.51 7.89551 1275.51 8.85254C1275.51 9.80957 1275.17 10.6299 1274.48 11.3135C1273.84 11.9515 1273.05 12.2705 1272.09 12.2705H1220.82V94.3018ZM1231.07 56.7041H1272.09C1273.05 56.7041 1273.84 57.0459 1274.48 57.7295C1275.17 58.3675 1275.51 59.165 1275.51 60.1221C1275.51 61.0791 1275.17 61.8994 1274.48 62.583C1273.84 63.221 1273.05 63.54 1272.09 63.54H1234.49V80.6299H1272.09C1273.05 80.6299 1273.84 80.9717 1274.48 81.6553C1275.17 82.2933 1275.51 83.0908 1275.51 84.0479C1275.51 85.0049 1275.17 85.8252 1274.48 86.5088C1273.84 87.1468 1273.05 87.4658 1272.09 87.4658H1231.07C1230.12 87.4658 1229.3 87.1468 1228.61 86.5088C1227.97 85.8252 1227.66 85.0049 1227.66 84.0479V60.1221C1227.66 59.165 1227.97 58.3675 1228.61 57.7295C1229.3 57.0459 1230.12 56.7041 1231.07 56.7041ZM1231.07 19.1064H1272.09C1273.05 19.1064 1273.84 19.4482 1274.48 20.1318C1275.17 20.7699 1275.51 21.5674 1275.51 22.5244C1275.51 23.4814 1275.17 24.3018 1274.48 24.9854C1273.84 25.6234 1273.05 25.9424 1272.09 25.9424H1234.49V43.0322H1272.09C1273.05 43.0322 1273.84 43.374 1274.48 44.0576C1275.17 44.6956 1275.51 45.4932 1275.51 46.4502C1275.51 47.4072 1275.17 48.2275 1274.48 48.9111C1273.84 49.5492 1273.05 49.8682 1272.09 49.8682H1231.07C1230.12 49.8682 1229.3 49.5492 1228.61 48.9111C1227.97 48.2275 1227.66 47.4072 1227.66 46.4502V22.5244C1227.66 21.5674 1227.97 20.7699 1228.61 20.1318C1229.3 19.4482 1230.12 19.1064 1231.07 19.1064Z" fill="#891236"/>
<path fill-rule="evenodd" clip-rule="evenodd" d="M550.064 334.394L661.433 445.763C668.268 452.597 668.268 463.678 661.433 470.512L550.064 581.881C543.23 588.715 532.15 588.715 525.315 581.881C518.481 575.047 518.481 563.967 525.315 557.133L606.81 475.638H168.203C158.538 475.638 150.703 467.803 150.703 458.138C150.703 448.473 158.538 440.638 168.203 440.638H606.81L525.315 359.143C518.481 352.309 518.481 341.228 525.315 334.394C532.15 327.56 543.23 327.56 550.064 334.394Z" fill="#891236"/>
</svg>
