<?xml version="1.0" encoding="utf-8"?>
<!-- Generator: Adobe Illustrator 26.0.1, SVG Export Plug-In . SVG Version: 6.00 Build 0)  -->
<svg version="1.1" id="Calque_1" xmlns="http://www.w3.org/2000/svg" xmlns:xlink="http://www.w3.org/1999/xlink" x="0px" y="0px"
	 viewBox="0 0 225 282.1" style="enable-background:new 0 0 225 282.1;" xml:space="preserve">
<g id="Calque_2_00000049223252664778181680000012007963355526497935_">
</g>
<g>
	<path d="M139.6,194.8h49.2L141,132.6c10.9-2.5,19.1-7.4,24.7-14.6c5.6-7.2,8.4-16.5,8.4-28.1c0-6.5-1-12.5-3.1-18.1
		s-5.2-10.6-9.3-14.9s-9.3-7.7-15.6-10.2S132.4,43,123.9,43H62.4v175H40.1l21,14.7l21,14.7l21-14.7l21-14.7h-22.3v-81.5L139.6,194.8
		z M100.8,118.9V64.4H132v12h-17v9.1h15.5v12H115v21.4H100.8z"/>
</g>
</svg>
